# xmcd
#
# Track frame offsets: 
#        150
#        14125
#        29797
#        42860
#        57365
#        69547
#        83807
#        100255
#        118010
#        133620
#        146615
#        163422
#
# Disc length: 2371 seconds
#
# Revision: 4
# Processed by: cddbd v1.5.2PL0 Copyright (c) Steve Scherf et al.
# Submitted via: ExactAudioCopy v1.0b4
#
DISCID=b309410c
DTITLE=Various Artist - 青春のバイブル '70 Disk1
DYEAR=0
DGENRE=J/Pop
TTITLE0=ジローズ - 戦争を知らない子供たち
TTITLE1=浅川マキ - 夜が明けたら
TTITLE2=はしだのりひことクライマックス - 花嫁
TTITLE3=加藤和彦と北山修 - あの素晴らしい愛をもう一度
TTITLE4=RCサクセション - ぼくの好きな先生
TTITLE5=チューリップ - 魔法の黄色い靴
TTITLE6=チューリップ - 心の旅
TTITLE7=りりィ - 心が痛い
TTITLE8=りりィ - 私は泣いています
TTITLE9=ダウン・タウン・ブギウギ・バンド - スモーキン・ブギ
TTITLE10=かまやつひろし - 我が良き友よ
TTITLE11=甲斐バンド - 裏切りの街角
EXTD=
EXTT0=
EXTT1=
EXTT2=
EXTT3=
EXTT4=
EXTT5=
EXTT6=
EXTT7=
EXTT8=
EXTT9=
EXTT10=
EXTT11=
PLAYORDER=
